{
  "accessors": [
    {
      "bufferView": 2,
      "componentType": 5126,
      "count": 65532,
      "max": [
        9.654197692871094,
        8.610007286071777,
        26.240394592285156
      ],
      "min": [
        -9.498446464538574,
        -8.438234329223633,
        1.1649627685546875
      ],
      "type": "VEC3"
    },
    {
      "bufferView": 2,
      "byteOffset": 786384,
      "componentType": 5126,
      "count": 65532,
      "max": [
        0.9999998211860657,
        0.9999842643737793,
        0.9997612237930298
      ],
      "min": [
        -0.9999958276748657,
        -0.9995825290679932,
        -0.9992429614067078
      ],
      "type": "VEC3"
    },
    {
      "bufferView": 1,
      "componentType": 5126,
      "count": 65532,
      "max": [
        0.9997559785842896,
        0.43195798993110657
      ],
      "min": [
        0.00024399999529123306,
        0.00024399999529123306
      ],
      "type": "VEC2"
    },
    {
      "bufferView": 0,
      "componentType": 5125,
      "count": 325764,
      "type": "SCALAR"
    },
    {
      "bufferView": 2,
      "byteOffset": 1572768,
      "componentType": 5126,
      "count": 65532,
      "max": [
        8.077574729919434,
        0.3670133352279663,
        13.551857948303223
      ],
      "min": [
        -10.933300018310547,
        -10.494246482849121,
        0.03966712951660156
      ],
      "type": "VEC3"
    },
    {
      "bufferView": 2,
      "byteOffset": 2359152,
      "componentType": 5126,
      "count": 65532,
      "max": [
        0.9997258186340332,
        0.9999340176582336,
        0.9999656081199646
      ],
      "min": [
        -0.9999963641166687,
        -0.9998759627342224,
        -0.9998904466629028
      ],
      "type": "VEC3"
    },
    {
      "bufferView": 1,
      "byteOffset": 524256,
      "componentType": 5126,
      "count": 65532,
      "max": [
        0.9997559785842896,
        0.39959999918937683
      ],
      "min": [
        0.00024399999529123306,
        0.00024399999529123306
      ],
      "type": "VEC2"
    },
    {
      "bufferView": 0,
      "byteOffset": 1303056,
      "componentType": 5125,
      "count": 286104,
      "type": "SCALAR"
    },
    {
      "bufferView": 2,
      "byteOffset": 3145536,
      "componentType": 5126,
      "count": 65532,
      "max": [
        8.468570709228516,
        9.273033142089844,
        24.479997634887695
      ],
      "min": [
        -10.931527137756348,
        -10.586766242980957,
        0.5015125274658203
      ],
      "type": "VEC3"
    },
    {
      "bufferView": 2,
      "byteOffset": 3931920,
      "componentType": 5126,
      "count": 65532,
      "max": [
        0.99998539686203,
        0.9999527931213379,
        0.9999504685401917
      ],
      "min": [
        -0.999963641166687,
        -0.999945878982544,
        -0.999902069568634
      ],
      "type": "VEC3"
    },
    {
      "bufferView": 1,
      "byteOffset": 1048512,
      "componentType": 5126,
      "count": 65532,
      "max": [
        0.9997559785842896,
        0.4040530025959015
      ],
      "min": [
        0.00024399999529123306,
        0.00024399999529123306
      ],
      "type": "VEC2"
    },
    {
      "bufferView": 0,
      "byteOffset": 2447472,
      "componentType": 5125,
      "count": 276162,
      "type": "SCALAR"
    },
    {
      "bufferView": 2,
      "byteOffset": 4718304,
      "componentType": 5126,
      "count": 65532,
      "max": [
        1.7790536880493164,
        8.918180465698242,
        25.665042877197266
      ],
      "min": [
        -10.916534423828125,
        -11.05063247680664,
        2.386157989501953
      ],
      "type": "VEC3"
    },
    {
      "bufferView": 2,
      "byteOffset": 5504688,
      "componentType": 5126,
      "count": 65532,
      "max": [
        0.9999077916145325,
        0.9999920129776001,
        0.9999993443489075
      ],
      "min": [
        -0.9999985694885254,
        -0.9998881816864014,
        -0.9999173283576965
      ],
      "type": "VEC3"
    },
    {
      "bufferView": 1,
      "byteOffset": 1572768,
      "componentType": 5126,
      "count": 65532,
      "max": [
        0.9997559785842896,
        0.4206539988517761
      ],
      "min": [
        0.00024399999529123306,
        0.00024399999529123306
      ],
      "type": "VEC2"
    },
    {
      "bufferView": 0,
      "byteOffset": 3552120,
      "componentType": 5125,
      "count": 305517,
      "type": "SCALAR"
    },
    {
      "bufferView": 2,
      "byteOffset": 6291072,
      "componentType": 5126,
      "count": 65532,
      "max": [
        8.265385627746582,
        10.049765586853027,
        25.354145050048828
      ],
      "min": [
        -10.284676551818848,
        -11.379919052124023,
        7.14423942565918
      ],
      "type": "VEC3"
    },
    {
      "bufferView": 2,
      "byteOffset": 7077456,
      "componentType": 5126,
      "count": 65532,
      "max": [
        0.999717116355896,
        0.9999891519546509,
        0.9999881982803345
      ],
      "min": [
        -0.9998387098312378,
        -0.9999968409538269,
        -1.0
      ],
      "type": "VEC3"
    },
    {
      "bufferView": 1,
      "byteOffset": 2097024,
      "componentType": 5126,
      "count": 65532,
      "max": [
        0.9997559785842896,
        0.42260700464248657
      ],
      "min": [
        0.00024399999529123306,
        0.00024399999529123306
      ],
      "type": "VEC2"
    },
    {
      "bufferView": 0,
      "byteOffset": 4774188,
      "componentType": 5125,
      "count": 308946,
      "type": "SCALAR"
    },
    {
      "bufferView": 2,
      "byteOffset": 7863840,
      "componentType": 5126,
      "count": 65532,
      "max": [
        9.163439750671387,
        10.046379089355469,
        24.508731842041016
      ],
      "min": [
        -7.019079208374023,
        -9.513203620910645,
        0.049404144287109375
      ],
      "type": "VEC3"
    },
    {
      "bufferView": 2,
      "byteOffset": 8650224,
      "componentType": 5126,
      "count": 65532,
      "max": [
        0.9999265074729919,
        0.9999935626983643,
        0.9999991655349731
      ],
      "min": [
        -0.9993695020675659,
        -0.9998912215232849,
        -0.9999900460243225
      ],
      "type": "VEC3"
    },
    {
      "bufferView": 1,
      "byteOffset": 2621280,
      "componentType": 5126,
      "count": 65532,
      "max": [
        0.9997559785842896,
        0.3871670067310333
      ],
      "min": [
        0.00024399999529123306,
        0.00024399999529123306
      ],
      "type": "VEC2"
    },
    {
      "bufferView": 0,
      "byteOffset": 6009972,
      "componentType": 5125,
      "count": 273516,
      "type": "SCALAR"
    },
    {
      "bufferView": 2,
      "byteOffset": 9436608,
      "componentType": 5126,
      "count": 65532,
      "max": [
        9.188549995422363,
        9.403177261352539,
        23.83620262145996
      ],
      "min": [
        -9.339398384094238,
        -10.31721305847168,
        0.5477409362792969
      ],
      "type": "VEC3"
    },
    {
      "bufferView": 2,
      "byteOffset": 10222992,
      "componentType": 5126,
      "count": 65532,
      "max": [
        0.9999986886978149,
        0.999885618686676,
        0.9998531937599182
      ],
      "min": [
        -0.9999079704284668,
        -0.9999662637710571,
        -0.9999290704727173
      ],
      "type": "VEC3"
    },
    {
      "bufferView": 1,
      "byteOffset": 3145536,
      "componentType": 5126,
      "count": 65532,
      "max": [
        0.9997559785842896,
        0.4470210075378418
      ],
      "min": [
        0.00024399999529123306,
        0.00024399999529123306
      ],
      "type": "VEC2"
    },
    {
      "bufferView": 0,
      "byteOffset": 7104036,
      "componentType": 5125,
      "count": 263268,
      "type": "SCALAR"
    },
    {
      "bufferView": 2,
      "byteOffset": 11009376,
      "componentType": 5126,
      "count": 65532,
      "max": [
        9.05789566040039,
        9.383808135986328,
        23.89141273498535
      ],
      "min": [
        -9.341951370239258,
        -8.197794914245605,
        0.18935012817382813
      ],
      "type": "VEC3"
    },
    {
      "bufferView": 2,
      "byteOffset": 11795760,
      "componentType": 5126,
      "count": 65532,
      "max": [
        0.9999812841415405,
        0.9998021721839905,
        0.9996572732925415
      ],
      "min": [
        -0.9999958276748657,
        -0.9999268651008606,
        -0.999924898147583
      ],
      "type": "VEC3"
    },
    {
      "bufferView": 1,
      "byteOffset": 3669792,
      "componentType": 5126,
      "count": 65532,
      "max": [
        0.9997559785842896,
        0.4355210065841675
      ],
      "min": [
        0.00024399999529123306,
        0.00024399999529123306
      ],
      "type": "VEC2"
    },
    {
      "bufferView": 0,
      "byteOffset": 8157108,
      "componentType": 5125,
      "count": 267714,
      "type": "SCALAR"
    },
    {
      "bufferView": 2,
      "byteOffset": 12582144,
      "componentType": 5126,
      "count": 65533,
      "max": [
        9.974570274353027,
        9.511735916137695,
        26.390575408935547
      ],
      "min": [
        -8.206012725830078,
        -9.787564277648926,
        0.5247611999511719
      ],
      "type": "VEC3"
    },
    {
      "bufferView": 2,
      "byteOffset": 13368540,
      "componentType": 5126,
      "count": 65533,
      "max": [
        0.9999045729637146,
        0.9999970197677612,
        0.999973714351654
      ],
      "min": [
        -0.9998937845230103,
        -0.9999715089797974,
        -0.9999039769172668
      ],
      "type": "VEC3"
    },
    {
      "bufferView": 1,
      "byteOffset": 4194048,
      "componentType": 5126,
      "count": 65533,
      "max": [
        0.9997559785842896,
        0.44116199016571045
      ],
      "min": [
        0.00024399999529123306,
        0.00024399999529123306
      ],
      "type": "VEC2"
    },
    {
      "bufferView": 0,
      "byteOffset": 9227964,
      "componentType": 5125,
      "count": 238362,
      "type": "SCALAR"
    },
    {
      "bufferView": 2,
      "byteOffset": 14154936,
      "componentType": 5126,
      "count": 65532,
      "max": [
        9.972298622131348,
        10.163775444030762,
        21.370302200317383
      ],
      "min": [
        -9.443507194519043,
        -3.5723745822906494,
        0.11345481872558594
      ],
      "type": "VEC3"
    },
    {
      "bufferView": 2,
      "byteOffset": 14941320,
      "componentType": 5126,
      "count": 65532,
      "max": [
        0.9999415874481201,
        0.9999469518661499,
        0.9998644590377808
      ],
      "min": [
        -0.9999516606330872,
        -0.9999537467956543,
        -0.99982088804245
      ],
      "type": "VEC3"
    },
    {
      "bufferView": 1,
      "byteOffset": 4718312,
      "componentType": 5126,
      "count": 65532,
      "max": [
        0.9997559785842896,
        0.4470210075378418
      ],
      "min": [
        0.00024399999529123306,
        0.00024399999529123306
      ],
      "type": "VEC2"
    },
    {
      "bufferView": 0,
      "byteOffset": 10181412,
      "componentType": 5125,
      "count": 219537,
      "type": "SCALAR"
    },
    {
      "bufferView": 2,
      "byteOffset": 15727704,
      "componentType": 5126,
      "count": 65213,
      "max": [
        9.97144889831543,
        10.163775444030762,
        23.86996078491211
      ],
      "min": [
        -10.933300018310547,
        -11.383058547973633,
        9.104602813720703
      ],
      "type": "VEC3"
    },
    {
      "bufferView": 2,
      "byteOffset": 16510260,
      "componentType": 5126,
      "count": 65213,
      "max": [
        0.9999986886978149,
        0.9998466968536377,
        0.9999993443489075
      ],
      "min": [
        -0.9999951720237732,
        -0.9999313950538635,
        -0.999878466129303
      ],
      "type": "VEC3"
    },
    {
      "bufferView": 1,
      "byteOffset": 5242568,
      "componentType": 5126,
      "count": 65213,
      "max": [
        0.9997559785842896,
        0.4479979872703552
      ],
      "min": [
        0.00024399999529123306,
        0.00024399999529123306
      ],
      "type": "VEC2"
    },
    {
      "bufferView": 0,
      "byteOffset": 11059560,
      "componentType": 5125,
      "count": 235110,
      "type": "SCALAR"
    }
  ],
  "asset": {
    "extras": {
      "author": "The Royal Armoury (Livrustkammaren) (https://sketchfab.com/TheRoyalArmoury)",
      "license": "CC-BY-4.0 (http://creativecommons.org/licenses/by/4.0/)",
      "source": "https://sketchfab.com/3d-models/jousting-helmet-a4eea31d9d9441af9434a7da5ae46b54",
      "title": "Jousting Helmet"
    },
    "generator": "Sketchfab-12.68.0",
    "version": "2.0"
  },
  "bufferViews": [
    {
      "buffer": 0,
      "byteLength": 12000000,
      "name": "floatBufferViews",
      "target": 34963
    },
    {
      "buffer": 0,
      "byteLength": 5764272,
      "byteOffset": 12000000,
      "byteStride": 8,
      "name": "floatBufferViews",
      "target": 34962
    },
    {
      "buffer": 0,
      "byteLength": 17292816,
      "byteOffset": 17764272,
      "byteStride": 12,
      "name": "floatBufferViews",
      "target": 34962
    }
  ],
  "buffers": [
    {
      "byteLength": 35057088,
      "uri": "scene.bin"
    }
  ],
  "images": [
    {
      "uri": "textures/model_Material_u1_v1_baseColor.jpeg"
    }
  ],
  "materials": [
    {
      "doubleSided": true,
      "name": "model_Material_u1_v1",
      "pbrMetallicRoughness": {
        "baseColorFactor": [
          0.88,
          0.88,
          0.88,
          1.0
        ],
        "baseColorTexture": {
          "index": 0
        },
        "roughnessFactor": 0.19
      }
    }
  ],
  "meshes": [
    {
      "name": "Object_0",
      "primitives": [
        {
          "attributes": {
            "NORMAL": 1,
            "POSITION": 0,
            "TEXCOORD_0": 2
          },
          "indices": 3,
          "material": 0,
          "mode": 4
        }
      ]
    },
    {
      "name": "Object_1",
      "primitives": [
        {
          "attributes": {
            "NORMAL": 5,
            "POSITION": 4,
            "TEXCOORD_0": 6
          },
          "indices": 7,
          "material": 0,
          "mode": 4
        }
      ]
    },
    {
      "name": "Object_2",
      "primitives": [
        {
          "attributes": {
            "NORMAL": 9,
            "POSITION": 8,
            "TEXCOORD_0": 10
          },
          "indices": 11,
          "material": 0,
          "mode": 4
        }
      ]
    },
    {
      "name": "Object_3",
      "primitives": [
        {
          "attributes": {
            "NORMAL": 13,
            "POSITION": 12,
            "TEXCOORD_0": 14
          },
          "indices": 15,
          "material": 0,
          "mode": 4
        }
      ]
    },
    {
      "name": "Object_4",
      "primitives": [
        {
          "attributes": {
            "NORMAL": 17,
            "POSITION": 16,
            "TEXCOORD_0": 18
          },
          "indices": 19,
          "material": 0,
          "mode": 4
        }
      ]
    },
    {
      "name": "Object_5",
      "primitives": [
        {
          "attributes": {
            "NORMAL": 21,
            "POSITION": 20,
            "TEXCOORD_0": 22
          },
          "indices": 23,
          "material": 0,
          "mode": 4
        }
      ]
    },
    {
      "name": "Object_6",
      "primitives": [
        {
          "attributes": {
            "NORMAL": 25,
            "POSITION": 24,
            "TEXCOORD_0": 26
          },
          "indices": 27,
          "material": 0,
          "mode": 4
        }
      ]
    },
    {
      "name": "Object_7",
      "primitives": [
        {
          "attributes": {
            "NORMAL": 29,
            "POSITION": 28,
            "TEXCOORD_0": 30
          },
          "indices": 31,
          "material": 0,
          "mode": 4
        }
      ]
    },
    {
      "name": "Object_8",
      "primitives": [
        {
          "attributes": {
            "NORMAL": 33,
            "POSITION": 32,
            "TEXCOORD_0": 34
          },
          "indices": 35,
          "material": 0,
          "mode": 4
        }
      ]
    },
    {
      "name": "Object_9",
      "primitives": [
        {
          "attributes": {
            "NORMAL": 37,
            "POSITION": 36,
            "TEXCOORD_0": 38
          },
          "indices": 39,
          "material": 0,
          "mode": 4
        }
      ]
    },
    {
      "name": "Object_10",
      "primitives": [
        {
          "attributes": {
            "NORMAL": 41,
            "POSITION": 40,
            "TEXCOORD_0": 42
          },
          "indices": 43,
          "material": 0,
          "mode": 4
        }
      ]
    }
  ],
  "nodes": [
    {
      "children": [
        1
      ],
      "matrix": [
        -0.02516942825960533,
        0.0008523497901743928,
        -0.02852120379966694,
        0.0,
        -0.02841673458789562,
        0.00269473642952755,
        0.02515776916446333,
        0.0,
        0.0025835560375774835,
        0.037943346983660975,
        -0.001146011477293858,
        0.0,
        -2.016190528869629,
        -0.06047832593321831,
        1.380821704864502,
        1.0
      ],
      "name": "Sketchfab_model"
    },
    {
      "children": [
        2,
        3,
        4,
        5,
        6,
        7,
        8,
        9,
        10,
        11,
        12
      ],
      "name": "model.obj.cleaner.materialmerger.gles"
    },
    {
      "mesh": 0,
      "name": "Object_2"
    },
    {
      "mesh": 1,
      "name": "Object_3"
    },
    {
      "mesh": 2,
      "name": "Object_4"
    },
    {
      "mesh": 3,
      "name": "Object_5"
    },
    {
      "mesh": 4,
      "name": "Object_6"
    },
    {
      "mesh": 5,
      "name": "Object_7"
    },
    {
      "mesh": 6,
      "name": "Object_8"
    },
    {
      "mesh": 7,
      "name": "Object_9"
    },
    {
      "mesh": 8,
      "name": "Object_10"
    },
    {
      "mesh": 9,
      "name": "Object_11"
    },
    {
      "mesh": 10,
      "name": "Object_12"
    }
  ],
  "samplers": [
    {
      "magFilter": 9729,
      "minFilter": 9987,
      "wrapS": 10497,
      "wrapT": 10497
    }
  ],
  "scene": 0,
  "scenes": [
    {
      "name": "Sketchfab_Scene",
      "nodes": [
        0
      ]
    }
  ],
  "textures": [
    {
      "sampler": 0,
      "source": 0
    }
  ]
}
